<?xml version="1.0" standalone="no"?>
<!DOCTYPE svg PUBLIC "-//W3C//DTD SVG 20010904//EN"
 "http://www.w3.org/TR/2001/REC-SVG-20010904/DTD/svg10.dtd">
<svg version="1.0" xmlns="http://www.w3.org/2000/svg"
 width="512.000000pt" height="512.000000pt" viewBox="0 0 512.000000 512.000000"
 preserveAspectRatio="xMidYMid meet">
<metadata>
Created by potrace 1.11, written by Peter Selinger 2001-2013
</metadata>
<g transform="translate(0.000000,512.000000) scale(0.100000,-0.100000)"
fill="#000000" stroke="none">
<path d="M2427 4583 c-2 -2 -46 -4 -98 -4 -52 0 -108 -5 -126 -10 -17 -6 -69
-11 -115 -13 -45 -1 -90 -5 -98 -9 -26 -11 -140 -26 -156 -20 -8 3 -20 0 -28
-6 -7 -6 -16 -8 -19 -4 -4 3 -17 1 -30 -5 -29 -15 -177 -51 -172 -41 7 11 -78
-12 -95 -26 -8 -6 -43 -22 -78 -34 -35 -12 -80 -30 -100 -39 -20 -8 -43 -15
-49 -13 -42 7 -272 -191 -314 -271 -21 -40 -31 -138 -34 -313 -1 -60 -4 -172
-7 -247 -2 -76 -1 -138 3 -138 5 0 8 -89 8 -197 0 -109 2 -276 5 -371 2 -96 0
-175 -5 -178 -5 -3 -4 -15 3 -27 6 -12 12 -56 12 -97 1 -41 5 -80 9 -87 4 -7
10 -50 13 -95 3 -45 9 -85 13 -88 10 -6 26 -87 22 -111 -1 -9 8 -35 20 -58 11
-22 23 -60 25 -83 2 -23 10 -48 18 -57 13 -15 27 -57 41 -125 3 -15 9 -26 12
-22 8 7 43 -70 43 -94 0 -10 6 -25 13 -32 22 -23 59 -87 54 -95 -3 -5 1 -19 9
-33 7 -14 13 -21 14 -15 0 19 50 -64 50 -84 0 -11 11 -28 25 -37 13 -9 36 -40
50 -70 14 -30 30 -53 35 -51 11 3 61 -63 55 -73 -5 -8 34 -47 41 -42 7 4 49
-49 57 -71 4 -9 15 -20 24 -24 27 -9 64 -45 74 -70 4 -12 23 -29 41 -36 32
-14 80 -57 63 -57 -15 0 29 -29 45 -30 17 -1 70 -45 70 -58 0 -11 30 -26 43
-23 11 2 69 -39 85 -61 7 -10 22 -18 33 -18 25 0 80 -28 95 -48 6 -8 20 -16
30 -17 36 -3 94 -26 102 -41 5 -9 24 -17 43 -19 47 -5 101 -22 109 -36 4 -6
27 -12 51 -14 24 -2 61 -8 82 -14 37 -9 99 1 122 19 15 13 202 79 208 74 6 -6
98 36 115 52 7 8 46 33 85 55 87 51 222 143 259 176 14 14 31 23 36 20 12 -8
85 67 75 77 -4 4 0 4 8 1 17 -6 123 100 115 114 -3 4 9 21 27 37 l32 29 -30
-35 -30 -35 32 29 c18 16 30 32 28 37 -3 4 16 33 41 64 43 52 98 134 219 322
28 42 50 80 50 83 1 3 9 20 19 39 10 18 13 30 7 27 -6 -4 2 21 18 56 15 35 36
87 45 116 10 28 22 52 26 52 9 0 33 73 32 100 0 26 37 162 48 175 6 7 13 49
15 94 3 46 10 101 16 124 6 23 13 85 14 137 2 52 6 142 9 200 20 316 23 1122
6 1205 -7 33 -14 70 -15 82 -3 22 -24 65 -25 49 0 -12 -50 62 -50 75 0 15 -22
35 -48 43 -12 4 -34 23 -50 42 -16 19 -37 36 -48 38 -32 6 -93 39 -88 47 4 7
-27 21 -56 24 -30 3 -89 29 -84 37 3 4 -5 9 -18 12 -111 21 -137 29 -133 37 6
8 -19 14 -55 11 -24 -1 -104 20 -111 30 -3 5 -32 10 -65 12 -32 2 -69 4 -82 5
-13 0 -20 6 -17 11 4 6 -17 10 -57 10 -35 0 -80 5 -102 11 -21 6 -73 13 -115
15 -42 3 -98 7 -126 9 -77 6 -414 12 -418 8z m408 -234 c521 -49 904 -154
1056 -288 84 -74 83 -67 83 -471 1 -308 -11 -869 -19 -878 -1 -1 -61 30 -133
69 l-131 72 65 70 c104 113 183 298 184 430 l0 37 -609 0 -608 0 -193 108
-193 107 -14 45 c-56 190 -233 354 -430 400 -70 16 -207 15 -270 -3 l-52 -14
-101 56 c-119 66 -119 64 40 115 223 72 533 128 835 149 93 7 400 4 490 -4z
m-1569 -398 l81 -44 -49 -61 c-79 -98 -137 -244 -138 -343 l0 -33 110 0 c61 0
110 3 110 8 6 107 66 228 145 287 l34 27 148 -83 c421 -234 879 -492 887 -499
4 -5 19 -34 31 -65 56 -137 165 -266 287 -338 135 -80 321 -114 463 -84 l70
15 243 -135 c271 -151 253 -131 205 -227 -54 -108 -170 -197 -298 -231 -165
-43 -344 11 -462 139 -68 73 -108 155 -125 253 l-12 73 -108 0 -108 0 0 -143
c0 -174 -12 -218 -75 -276 -109 -101 -277 -71 -347 62 -20 37 -23 62 -26 200
l-4 157 -107 0 -106 0 -13 -76 c-51 -322 -408 -500 -696 -346 -107 57 -211
191 -235 304 -11 54 -26 718 -25 1143 0 238 3 326 13 343 7 13 15 22 19 20 4
-2 44 -23 88 -47z m984 -1911 c31 -31 82 -68 116 -85 l62 -30 -46 -57 c-25
-32 -66 -78 -91 -102 -40 -37 -57 -45 -116 -56 -86 -16 -265 -16 -325 0 -25 6
-57 23 -73 38 -32 31 -112 150 -105 158 3 2 34 9 69 14 76 12 167 43 229 78
58 33 180 131 181 146 0 6 10 -2 22 -19 12 -16 47 -55 77 -85z m890 -39 c78
-42 148 -65 240 -81 41 -7 77 -15 79 -16 5 -4 -76 -124 -106 -156 -28 -30 -84
-46 -180 -52 -72 -4 -224 9 -270 25 -41 13 -220 201 -202 212 2 1 29 14 59 29
60 30 129 92 168 150 l24 38 64 -59 c35 -32 91 -72 124 -90z m-1716 -115 c59
-107 137 -225 190 -283 83 -92 191 -126 396 -125 134 1 227 14 308 43 47 18
74 39 154 120 96 97 97 98 113 76 36 -51 153 -161 196 -182 147 -75 526 -75
654 0 75 44 179 179 271 354 33 62 46 77 86 97 27 13 48 22 48 20 0 -2 -20
-53 -45 -112 -211 -504 -580 -881 -1040 -1064 -42 -17 -78 -30 -80 -30 -3 0
-5 137 -5 305 l0 305 -110 0 -110 0 0 -306 0 -305 -22 6 c-13 4 -61 23 -108
43 -443 185 -795 559 -1005 1066 -19 47 -35 87 -35 89 0 2 24 -7 53 -21 47
-22 57 -32 91 -96z m2006 -899 c0 -2 -15 -16 -32 -33 l-33 -29 29 33 c28 30
36 37 36 29z"/>
<path d="M3237 4045 c-97 -25 -206 -85 -278 -155 -99 -95 -178 -269 -179 -392
l0 -38 109 0 108 0 7 59 c14 122 97 235 214 289 50 24 70 27 157 27 93 0 104
-2 160 -32 115 -60 198 -174 212 -292 l6 -51 108 0 109 0 0 40 c0 107 -57 250
-140 349 -61 73 -179 154 -268 182 -87 28 -244 34 -325 14z"/>
<path d="M1740 3276 c-89 -26 -149 -59 -234 -130 l-30 -25 44 -40 c189 -172
505 -175 687 -5 l48 44 -48 44 c-56 51 -132 91 -208 111 -65 18 -198 18 -259
1z"/>
</g>
</svg>
